PathFileType	4	(X/Y/Z)	6_coords_data.trc
DataRate	CameraRate	NumFrames	NumMarkers	Units	OrigDataRate	OrigDataStartFrame	OrigNumFrames
30.0	30.0	9	21	m	30.0	1	71
Frame#	Time	THUMB_TIP	THUMB_IP	THUMB_MCP	THUMB_CMC	INDEX_TIP	INDEX_DIP	INDEX_PIP	INDEX_MCP	MIDDLE_TIP	MIDDLE_DIP	MIDDLE_PIP	MIDDLE_MCP	RING_TIP	RING_DIP	RING_PIP	RING_MCP	PINKY_TIP	PINKY_DIP	PINKY_PIP	PINKY_MCP	WRIST
X1	Y1	Z1	X2	Y2	Z2	X3	Y3	Z3	X4	Y4	Z4	X5	Y5	Z5	X6	Y6	Z6	X7	Y7	Z7	X8	Y8	Z8	X9	Y9	Z9	X10	Y10	Z10	X11	Y11	Z11	X12	Y12	Z12	X13	Y13	Z13	X14	Y14	Z14	X15	Y15	Z15	X16	Y16	Z16	X17	Y17	Z17	X18	Y18	Z18	X19	Y19	Z19	X20	Y20	Z20	X21	Y21	Z21
0	0.0	0.016756099700927736	-0.10673400115966797	0.9863070068359375	0.04028340148925781	-0.1032300033569336	0.995301025390625	0.04569369888305664	-0.09519779968261718	1.0234299926757813	0.0193125	-0.08052559661865234	1.04068994140625	0.05690650177001953	-0.20558900451660156	0.986739990234375	0.051930999755859374	-0.18661799621582031	1.0001199951171875	0.04606869888305664	-0.17006300354003906	1.0134600219726562	0.03297909927368164	-0.145	1.0410400390625	0.02557990074157715	-0.08959320068359375	1.0106400146484376	0.027011100769042968	-0.10910099792480468	1.003510009765625	0.023944000244140624	-0.13854400634765626	1.00397998046875	0.00485899019241333	-0.15268800354003906	1.045800048828125	0.016646900177001954	-0.0875176010131836	1.0026699829101562	0.01262849998474121	-0.10631600189208984	0.9965969848632813	0.0042866401672363285	-0.1313489990234375	0.9982509765625	-0.015331999778747558	-0.143802001953125	1.03368994140625	-0.03654919815063477	-0.1715260009765625	0.9703040161132812	-0.03478369903564453	-0.15698500061035156	0.98547998046875	-0.03298600006103516	-0.14430799865722657	1.0001699829101562	-0.026708999633789064	-0.12606199645996094	1.0229400024414061	-0.00956233024597168	-0.07938680267333985	1.0625799560546876
1	0.03333333333333333	0.01662969970703125	-0.10650800323486329	0.9866259765625	0.039282398223876955	-0.10323100280761718	0.9945369873046875	0.04468880081176758	-0.09459850311279297	1.02247998046875	0.020406200408935548	-0.08084190368652344	1.0406199951171875	0.05675830078125	-0.20370599365234374	0.98568798828125	0.052280200958251956	-0.18622000122070312	0.9996729736328125	0.04631039810180664	-0.16936900329589843	1.0136400146484374	0.03201219940185547	-0.14342999267578124	1.0409100341796875	0.02489080047607422	-0.0905155029296875	1.00947998046875	0.025638999938964843	-0.10890499877929688	1.0033599853515625	0.02356119918823242	-0.13784100341796876	1.0030800170898437	0.004758009910583496	-0.15112899780273437	1.0437900390625	0.016263299942016602	-0.08707769775390625	1.0024400024414062	0.01216790008544922	-0.10591899871826171	0.996843017578125	0.0033301999568939207	-0.13173599243164064	0.9980349731445313	-0.01601799964904785	-0.1430030059814453	1.034449951171875	-0.038764701843261716	-0.17113400268554688	0.9703590087890624	-0.03522880172729492	-0.1561479949951172	0.9845490112304688	-0.03225490188598633	-0.1438419952392578	0.9989849853515625	-0.02726390075683594	-0.12636499786376953	1.0222899780273438	-0.01140939998626709	-0.07775279998779297	1.0656400146484375
2	0.06666666666666667	0.016276599884033204	-0.10634200286865235	0.9862490234375	0.03877069854736328	-0.10289900207519531	0.9942470092773438	0.04417330169677734	-0.09432150268554687	1.0221199951171875	0.019994199752807616	-0.0804552993774414	1.040489990234375	0.05643510055541992	-0.20300599670410155	0.9850700073242188	0.051899799346923826	-0.18552099609375	0.999177978515625	0.04583950042724609	-0.16869900512695313	1.0133200073242188	0.03157589912414551	-0.14297999572753906	1.0407900390625	0.024518699645996095	-0.09041069793701172	1.0098900146484375	0.025061100006103516	-0.10868900299072265	1.0028499755859375	0.023121000289916992	-0.13751199340820314	1.0028300170898437	0.004307909965515137	-0.1507530059814453	1.04372998046875	0.015821900367736817	-0.08674590301513672	1.0021900024414063	0.011768400192260742	-0.1055780029296875	0.9966370239257812	0.002884560108184814	-0.13139399719238282	0.9978419799804688	-0.016447799682617188	-0.1426790008544922	1.0343299560546875	-0.039010799407958985	-0.17088099670410156	0.9702420043945312	-0.03559510040283203	-0.15594500732421876	0.9844879760742188	-0.03266859817504883	-0.14358599853515625	0.9988270263671875	-0.02768269920349121	-0.12600199890136718	1.021989990234375	-0.011863300323486328	-0.07744100189208984	1.065530029296875
3	0.1	0.015886500358581544	-0.10565699768066407	0.9860079956054687	0.03863790130615234	-0.10244400024414063	0.9942789916992187	0.043964000701904295	-0.09380680084228515	1.021989990234375	0.019593799591064453	-0.08003230285644532	1.0400999755859375	0.05619049835205078	-0.20212100219726561	0.9846069946289062	0.05171839904785156	-0.18480599975585937	0.9988099975585938	0.045669700622558596	-0.16801699829101563	1.0130700073242187	0.03140270042419434	-0.1424040069580078	1.04052001953125	0.024353300094604492	-0.08997200012207031	1.009219970703125	0.02479439926147461	-0.10823300170898438	1.0025999755859376	0.022863500595092772	-0.13706199645996095	1.0025599975585937	0.004214930057525635	-0.1503040008544922	1.0434100341796875	0.015516900062561035	-0.08632869720458984	1.0019199829101562	0.011421500205993652	-0.10529900360107422	0.9963469848632812	0.002647860050201416	-0.13104100036621094	0.9976519775390625	-0.016662200927734374	-0.14221200561523437	1.0343399658203125	-0.03909310150146485	-0.1705229949951172	0.9699879760742187	-0.03574349975585937	-0.15553900146484376	0.9842990112304687	-0.032894298553466796	-0.14318800354003905	0.9986580200195313	-0.027855100631713866	-0.12562999725341797	1.0218599853515624	-0.012183699607849121	-0.07712249755859375	1.0651800537109375
4	0.13333333333333333	0.015780500411987305	-0.10503399658203125	0.9857869873046875	0.03835070037841797	-0.1017490005493164	0.9939089965820312	0.04377149963378906	-0.09312770080566406	1.0219199829101562	0.01942799949645996	-0.0794749984741211	1.040010009765625	0.05647000122070313	-0.2012729949951172	0.9840360107421875	0.05182519912719727	-0.18393800354003906	0.9983259887695313	0.045726001739501955	-0.16723699951171875	1.0126300048828125	0.031229700088500977	-0.1417469940185547	1.0403199462890624	0.02382150077819824	-0.08933979797363281	1.0086300048828125	0.024587799072265625	-0.1076510009765625	1.0023699951171876	0.022764400482177736	-0.13635800170898438	1.0022999877929688	0.004077169895172119	-0.1497570037841797	1.04327001953125	0.015283499717712402	-0.08575019836425782	1.0018400268554688	0.011256099700927735	-0.10443099975585937	0.9962479858398438	0.0025189399719238283	-0.13034599304199218	0.997364990234375	-0.0168080997467041	-0.14166600036621094	1.0339300537109375	-0.03909420013427734	-0.17004800415039062	0.9697960205078126	-0.03575630187988281	-0.1550290069580078	0.9840150146484375	-0.032925201416015626	-0.14261700439453126	0.9984110107421875	-0.028069000244140625	-0.12514499664306641	1.021780029296875	-0.012354700088500977	-0.07664849853515625	1.0651199951171875
5	0.16666666666666666	0.015682499885559083	-0.10431500244140625	0.9855490112304688	0.03820759963989258	-0.10101100158691406	0.9935889892578125	0.04369359970092773	-0.09245850372314453	1.02152001953125	0.019402799606323243	-0.0788738021850586	1.03972998046875	0.05680239868164062	-0.20017599487304688	0.983176025390625	0.05201850128173828	-0.18298500061035156	0.9977269897460938	0.045792301177978514	-0.16629600524902344	1.0121400146484374	0.031177099227905274	-0.14114599609375	1.0398399658203126	0.023921899795532227	-0.088543701171875	1.0088200073242188	0.024491899490356444	-0.10678600311279297	1.0023099975585938	0.022684700012207033	-0.13557000732421876	1.0018800048828125	0.004047450065612793	-0.1491230010986328	1.042739990234375	0.015246299743652344	-0.08501609802246093	1.0014199829101562	0.011194499969482422	-0.10372000122070313	0.9958200073242187	0.00248376989364624	-0.12958599853515626	0.99706298828125	-0.016861900329589844	-0.1410189971923828	1.033550048828125	-0.039125999450683596	-0.169197998046875	0.969364013671875	-0.03582279968261719	-0.15429100036621093	0.983677978515625	-0.03304629898071289	-0.1419510040283203	0.9981259765625	-0.028226900100708007	-0.12445200347900391	1.0214400024414063	-0.012474200248718263	-0.07607420349121094	1.065050048828125
6	0.2	0.015623100280761719	-0.10369300079345703	0.98518701171875	0.037994098663330075	-0.10030799865722656	0.9931790161132813	0.04356539916992187	-0.09175360107421875	1.021489990234375	0.019216299057006836	-0.07824459838867187	1.0396099853515626	0.05697589874267578	-0.1992120056152344	0.9825850219726563	0.05203279876708984	-0.1821649932861328	0.9972059936523437	0.04575460052490234	-0.16559800720214843	1.0116699829101563	0.031152099609375	-0.1403350067138672	1.0395400390625	0.0237677001953125	-0.08786609649658203	1.0081400146484376	0.02440250015258789	-0.10616600036621093	1.001780029296875	0.0225669002532959	-0.134906005859375	1.00152001953125	0.0038425700664520258	-0.14852499389648438	1.042489990234375	0.015171600341796874	-0.08433409881591797	1.0010800170898437	0.011003700256347657	-0.10305100250244141	0.995489990234375	0.00235177993774414	-0.12877000427246094	0.9966719970703125	-0.016975299835205078	-0.1403419952392578	1.0331700439453124	-0.039327800750732424	-0.16839799499511718	0.968968994140625	-0.035972999572753905	-0.15353199768066406	0.9832360229492187	-0.033120098114013674	-0.1412469940185547	0.99768798828125	-0.028412700653076172	-0.12368599700927735	1.0211699829101561	-0.012520400047302246	-0.07549089813232422	1.0648900146484375
7	0.23333333333333334	0.015529500007629395	-0.10290399932861329	0.9846840209960938	0.03790010070800781	-0.09941850280761719	0.9929390258789063	0.043356998443603516	-0.09100650024414063	1.0208900146484374	0.019136100769042968	-0.07747059631347657	1.039300048828125	0.05700859832763672	-0.19812100219726564	0.9819320068359375	0.05202560043334961	-0.18118099975585938	0.996635986328125	0.04567990112304687	-0.16470199584960937	1.0112000122070313	0.030949100494384766	-0.13958999633789063	1.03922998046875	0.023654199600219725	-0.08710199737548828	1.0080999755859374	0.024295900344848635	-0.10511799621582031	1.0016099853515625	0.02257740020751953	-0.13412899780273438	1.0011599731445313	0.003762900114059448	-0.14775900268554687	1.0420400390625	0.015070099830627442	-0.08349909973144531	1.0006699829101562	0.01087969970703125	-0.10228700256347656	0.9951079711914063	0.0021689500808715822	-0.12790899658203125	0.9962689819335937	-0.017110700607299804	-0.1396199951171875	1.0327900390625	-0.03947750091552735	-0.1674510040283203	0.9684530029296875	-0.03613570022583008	-0.15261599731445313	0.9827780151367187	-0.03327949905395508	-0.14040199279785157	0.997239013671875	-0.02850510025024414	-0.12300800323486329	1.020760009765625	-0.012501799583435058	-0.07475679779052734	1.0645999755859374
8	0.26666666666666666	0.01555869960784912	-0.10203199768066407	0.9842360229492187	0.03785110092163086	-0.09854460144042969	0.9925280151367187	0.04331869888305664	-0.09008879852294922	1.02075	0.019087200164794923	-0.076627197265625	1.0389200439453126	0.05720949935913086	-0.1970449981689453	0.9813179931640625	0.05218980026245117	-0.18003599548339844	0.99614697265625	0.045766201019287106	-0.16366200256347657	1.0107100219726564	0.0309143009185791	-0.13879600524902344	1.0389599609375	0.023757200241088867	-0.0862479019165039	1.0077999877929686	0.024320100784301756	-0.10421900177001953	1.0011400146484375	0.022407800674438476	-0.1331750030517578	1.000530029296875	0.003907569885253906	-0.14693800354003905	1.0416199951171874	0.015087300300598145	-0.08257749938964844	1.0002999877929688	0.010882399559020995	-0.10138300323486328	0.99468701171875	0.002120280027389526	-0.127177001953125	0.9959299926757812	-0.017112499237060548	-0.13871099853515625	1.0324599609375	-0.03941419982910156	-0.16659500122070312	0.9679940185546875	-0.036109298706054685	-0.1517239990234375	0.9823599853515625	-0.03328850173950195	-0.13946800231933593	0.9969089965820312	-0.028556900024414064	-0.12212400054931641	1.0204199829101563	-0.012615900039672851	-0.07404820251464844	1.0641099853515625
